<svg width="863" height="424" viewBox="0 0 863 424" fill="none" xmlns="http://www.w3.org/2000/svg">
<g opacity="0.3">
<circle r="157.909" transform="matrix(4.37114e-08 1 1 -4.37114e-08 157.909 195.909)" fill="url(#paint0_linear_21_3462)"/>
</g>
<path d="M367.749 411.448H458.733L470.554 353.777H379.57L367.749 411.448Z" fill="url(#paint1_linear_21_3462)"/>
<path d="M373.834 411.448H464.817L476.459 353.777H385.475L373.834 411.448Z" fill="url(#paint2_linear_21_3462)"/>
<path d="M349.475 423.268H471.264C471.443 423.268 471.622 423.089 471.622 422.91C471.622 414.85 465.174 408.402 457.115 408.402H363.982C355.922 408.402 349.475 414.85 349.475 422.91V423.268Z" fill="url(#paint3_linear_21_3462)"/>
<path d="M172.711 97.124C171.637 91.3927 175.577 86.915 181.487 86.915H572.824C578.734 86.915 584.107 91.5718 585.182 97.124L622.614 309.717L629.599 349.657C629.778 351.09 629.778 352.344 629.42 353.597C629.42 353.955 629.241 354.135 629.062 354.493C628.883 355.03 628.525 355.567 628.166 356.105C627.629 356.821 627.092 357.537 626.196 358.075C624.763 359.149 622.793 359.866 620.644 359.866H229.307C227.516 359.866 225.725 359.329 224.113 358.612C223.218 358.075 222.143 357.538 221.427 356.821C221.068 356.642 220.889 356.284 220.531 356.105C219.994 355.567 219.457 355.03 219.098 354.493C218.024 353.06 217.307 351.448 216.949 349.657L209.964 309.717L172.711 97.124Z" fill="url(#paint4_linear_21_3462)"/>
<path d="M624.764 359.508C628.166 359.508 630.495 356.822 629.778 353.419L584.287 93.7213C583.749 90.3184 580.525 87.6318 577.123 87.6318H185.786C182.383 87.6318 180.054 90.3184 180.771 93.7213L226.263 353.419C226.8 356.822 230.024 359.508 233.427 359.508H624.764Z" fill="white"/>
<path d="M186.502 91.7506C185.607 91.7506 184.89 92.467 185.069 93.5416L230.561 353.239C230.74 354.134 231.636 355.03 232.71 355.03H624.047C624.943 355.03 625.659 354.313 625.48 353.239L579.988 93.5416C579.809 92.6461 578.914 91.7506 577.839 91.7506H186.502ZM185.069 82.9746H576.406C582.317 82.9746 587.869 87.6313 588.764 93.5416L634.256 353.239C635.331 359.149 631.39 363.806 625.48 363.806H234.143C228.233 363.806 222.681 359.149 221.785 353.239L176.293 93.5416C175.219 87.6313 179.159 82.9746 185.069 82.9746Z" fill="url(#paint5_linear_21_3462)"/>
<path d="M234.142 363.806H625.479C631.39 363.806 635.151 359.15 634.255 353.239L627.091 312.225H214.62L221.784 353.239C222.859 359.15 228.411 363.806 234.142 363.806Z" fill="url(#paint6_linear_21_3462)"/>
<path d="M417.329 346.745C411.641 341.533 410.605 333.405 415.015 328.592C419.426 323.778 427.613 324.102 433.302 329.314C438.99 334.527 440.026 342.654 435.616 347.468C431.205 352.281 423.018 351.958 417.329 346.745Z" fill="url(#paint7_linear_21_3462)"/>
<path d="M202.232 403.467C204.309 403.467 206.386 402.313 207.309 400.236C208.693 397.467 207.539 394.005 204.77 392.39C190.231 385.235 176.846 370.004 179.615 355.234C180.077 353.157 181.23 351.772 183.538 351.541C187.462 351.08 192.77 351.772 198.77 353.618C201.77 354.542 205.001 352.926 206.155 349.926C207.309 346.926 205.462 343.695 202.462 342.541C194.847 340.002 187.923 339.31 182.154 340.002C174.999 340.925 169.691 346.003 168.307 353.157C164.614 374.389 181.923 393.774 199.693 402.544C200.385 403.236 201.308 403.467 202.232 403.467Z" fill="url(#paint8_linear_21_3462)"/>
<path d="M204.498 423.776H255.501C258.963 423.776 261.963 421.238 262.424 417.776L272.117 340.464C272.579 336.31 269.348 332.618 265.194 332.618H194.575C190.421 332.618 187.19 336.31 187.651 340.464L197.344 417.776C198.037 421.007 201.037 423.776 204.498 423.776Z" fill="url(#paint9_linear_21_3462)"/>
<path fill-rule="evenodd" clip-rule="evenodd" d="M246.503 365.11C246.358 365.226 246.184 365.283 246.01 365.283C245.776 365.283 245.545 365.178 245.388 364.98C241.503 360.085 235.691 357.28 229.45 357.28C223.674 357.28 218.145 359.754 214.289 364.063C213.998 364.386 213.497 364.415 213.169 364.123C212.846 363.833 212.817 363.331 213.109 363.004C217.268 358.36 223.226 355.696 229.454 355.696C236.18 355.696 242.441 358.724 246.633 363.998C246.904 364.338 246.847 364.839 246.503 365.11ZM229.452 399.552C232.92 399.552 236.239 398.764 239.315 397.216C239.706 397.018 239.861 396.541 239.666 396.153C239.468 395.761 238.991 395.607 238.603 395.801C235.753 397.24 232.673 397.968 229.456 397.968C218.239 397.968 209.112 388.841 209.112 377.624C209.112 375.619 209.404 373.643 209.977 371.743C210.102 371.323 209.868 370.882 209.447 370.757C209.031 370.632 208.587 370.866 208.461 371.287C207.843 373.336 207.532 375.466 207.532 377.624C207.524 389.718 217.363 399.552 229.452 399.552ZM245.069 392.66C245.284 392.66 245.498 392.571 245.655 392.402C249.35 388.356 251.383 383.109 251.383 377.624C251.383 375.518 251.084 373.432 250.493 371.427C250.368 371.007 249.928 370.768 249.511 370.89C249.091 371.015 248.853 371.456 248.974 371.872C249.52 373.731 249.798 375.663 249.798 377.624C249.798 382.709 247.911 387.579 244.487 391.334C244.192 391.658 244.216 392.159 244.54 392.454C244.689 392.592 244.879 392.66 245.069 392.66ZM229.45 396.03C239.599 396.03 247.856 387.772 247.856 377.623C247.856 367.474 239.599 359.216 229.45 359.216C228.714 359.216 227.978 359.261 227.255 359.346C226.822 359.398 226.511 359.79 226.564 360.227C226.616 360.659 227.008 360.978 227.445 360.918C228.104 360.841 228.779 360.801 229.45 360.801C238.726 360.801 246.268 368.347 246.268 377.619C246.268 386.896 238.722 394.438 229.45 394.438C229.013 394.438 228.657 394.794 228.657 395.23C228.657 395.675 229.013 396.03 229.45 396.03ZM222.829 393.973C222.695 394.264 222.409 394.434 222.109 394.434C222 394.434 221.887 394.41 221.778 394.361C215.258 391.366 211.043 384.797 211.043 377.623C211.043 371.071 214.576 364.96 220.255 361.678C220.635 361.46 221.12 361.589 221.338 361.969C221.556 362.349 221.427 362.834 221.047 363.052C215.853 366.055 212.627 371.637 212.627 377.628C212.627 384.184 216.479 390.186 222.441 392.922C222.837 393.104 223.011 393.577 222.829 393.973ZM239.585 388.213C239.791 388.213 240.001 388.132 240.155 387.971C242.855 385.182 244.339 381.508 244.339 377.623C244.339 377.187 243.983 376.831 243.547 376.831C243.11 376.831 242.754 377.187 242.754 377.623C242.754 381.091 241.429 384.374 239.015 386.867C238.712 387.183 238.72 387.684 239.036 387.987C239.189 388.136 239.387 388.213 239.585 388.213ZM235.414 391.265C233.53 392.09 231.525 392.506 229.452 392.506C225.026 392.506 220.863 390.558 218.029 387.154C217.75 386.818 217.794 386.317 218.13 386.038C218.466 385.759 218.967 385.804 219.246 386.139C221.78 389.18 225.502 390.921 229.455 390.921C231.307 390.921 233.097 390.549 234.779 389.814C235.183 389.636 235.648 389.822 235.822 390.222C235.996 390.622 235.814 391.091 235.414 391.265ZM215.996 382.595C216.073 382.595 216.153 382.582 216.23 382.558C216.646 382.429 216.881 381.984 216.751 381.568C216.355 380.294 216.157 378.969 216.157 377.623C216.157 370.291 222.123 364.325 229.455 364.325C234.128 364.325 238.376 366.709 240.813 370.703C241.04 371.075 241.528 371.196 241.901 370.966C242.272 370.739 242.394 370.25 242.163 369.878C239.435 365.408 234.681 362.74 229.451 362.74C221.246 362.74 214.569 369.418 214.569 377.623C214.569 379.127 214.791 380.614 215.235 382.037C215.344 382.376 215.656 382.595 215.996 382.595ZM240.02 377.628C240.02 371.792 235.29 367.059 229.454 367.059C223.617 367.059 218.884 371.788 218.888 377.628C218.888 383.461 223.621 388.194 229.454 388.194C235.287 388.194 240.02 383.465 240.02 377.628ZM227.566 381.788V379.007C226.333 378.336 225.497 377.03 225.493 375.531C225.493 373.344 227.263 371.574 229.45 371.574C231.636 371.574 233.407 373.344 233.407 375.531C233.407 377.031 232.574 378.336 231.341 379.007V381.788C231.341 382.826 230.492 383.675 229.454 383.675C228.415 383.675 227.566 382.827 227.566 381.788Z" fill="#5058C8"/>
<g filter="url(#filter0_d_21_3462)">
<path d="M631.347 303.877H249.071C245.089 303.877 241.298 300.844 240.634 297.147L204.521 104.35C203.857 100.654 206.511 97.6204 210.492 97.6204H592.769C596.75 97.6204 600.541 100.654 601.205 104.35L637.319 297.147C637.982 300.844 635.328 303.877 631.347 303.877Z" fill="white"/>
</g>
<path d="M604.335 120.938H207.651L204.618 104.824C203.859 100.843 206.513 97.6204 210.494 97.6204H592.771C596.752 97.6204 600.544 100.843 601.302 104.824L604.335 120.938Z" fill="url(#paint10_linear_21_3462)"/>
<path d="M232.365 113.465C234.304 111.336 233.806 107.725 231.252 105.398C228.698 103.071 225.056 102.91 223.117 105.038C221.177 107.166 221.676 110.778 224.23 113.105C226.784 115.432 230.426 115.593 232.365 113.465Z" fill="white"/>
<path opacity="0.8" d="M250.772 113.504C252.711 111.376 252.213 107.764 249.659 105.437C247.105 103.11 243.463 102.949 241.524 105.078C239.585 107.206 240.083 110.818 242.637 113.144C245.191 115.471 248.833 115.632 250.772 113.504Z" fill="white"/>
<path opacity="0.4" d="M269.244 113.474C271.183 111.346 270.685 107.734 268.131 105.407C265.577 103.08 261.935 102.919 259.995 105.048C258.056 107.176 258.555 110.787 261.109 113.114C263.663 115.441 267.305 115.602 269.244 113.474Z" fill="white"/>
<path d="M590.873 148.048H232.862C230.871 148.048 228.975 146.436 228.596 144.446L226.511 133.071C226.132 131.081 227.459 129.469 229.449 129.469H587.461C589.451 129.469 591.347 131.081 591.726 133.071L593.811 144.446C594.096 146.436 592.863 148.048 590.873 148.048Z" fill="url(#paint11_linear_21_3462)"/>
<path d="M597.793 185.393H530.115C528.124 185.393 526.229 183.782 525.849 181.791L521.868 160.464C521.489 158.474 522.816 156.862 524.807 156.862H592.485C594.475 156.862 596.371 158.474 596.75 160.464L600.731 181.791C601.111 183.782 599.783 185.393 597.793 185.393Z" fill="url(#paint12_linear_21_3462)"/>
<path fill-rule="evenodd" clip-rule="evenodd" d="M531.634 199.611H601.492C602.819 199.611 603.767 198.474 603.482 197.147C603.198 195.82 601.871 194.682 600.544 194.682H530.686C529.359 194.682 528.411 195.82 528.695 197.147C528.98 198.474 530.307 199.611 531.634 199.611ZM533.15 207.763H603.008C604.335 207.763 605.283 206.626 604.999 205.299C604.715 203.972 603.388 202.834 602.061 202.834H532.202C530.875 202.834 529.927 203.972 530.212 205.299C530.496 206.626 531.823 207.763 533.15 207.763ZM564.803 215.915H534.662C533.335 215.915 532.008 214.777 531.723 213.45C531.439 212.123 532.387 210.986 533.714 210.986H563.856C565.183 210.986 566.51 212.123 566.794 213.45C567.078 214.777 566.13 215.915 564.803 215.915ZM535.615 227.573H568.221C568.884 227.573 569.358 227.004 569.263 226.341C569.168 225.677 568.505 225.109 567.747 225.109H535.141C534.477 225.109 534.003 225.677 534.098 226.341C534.288 227.004 534.951 227.573 535.615 227.573ZM591.254 227.573H573.055C572.392 227.573 571.728 227.004 571.538 226.341C571.444 225.677 571.918 225.109 572.581 225.109H590.78C591.538 225.109 592.202 225.677 592.296 226.341C592.391 227.004 591.917 227.573 591.254 227.573Z" fill="url(#paint13_linear_21_3462)"/>
<path fill-rule="evenodd" clip-rule="evenodd" d="M239.107 163.797C240.961 165.494 241.318 168.121 239.904 169.666C238.491 171.211 235.842 171.088 233.989 169.392C232.135 167.696 231.778 165.069 233.191 163.524C234.604 161.979 237.253 162.101 239.107 163.797ZM247.173 169.752H278.736C280.442 169.752 281.58 168.331 281.295 166.624C281.011 164.918 279.305 163.497 277.599 163.497H246.035C244.329 163.497 243.192 164.918 243.476 166.624C243.855 168.331 245.467 169.752 247.173 169.752ZM280.445 218.189H242.815C242.151 218.189 241.488 217.621 241.298 216.957C241.203 216.294 241.677 215.725 242.341 215.725H280.066C280.73 215.725 281.393 216.294 281.488 216.957C281.583 217.621 281.109 218.189 280.445 218.189ZM281.579 224.73H243.949C243.285 224.73 242.622 224.161 242.432 223.498C242.337 222.834 242.811 222.265 243.475 222.265H281.2C281.863 222.265 282.527 222.834 282.622 223.498C282.717 224.161 282.243 224.73 281.579 224.73ZM245.088 231.176H282.719C283.382 231.176 283.856 230.607 283.761 229.944C283.667 229.28 283.003 228.711 282.34 228.711H244.709C244.046 228.711 243.572 229.28 243.666 229.944C243.761 230.607 244.425 231.176 245.088 231.176ZM283.954 237.716H246.324C245.565 237.716 244.902 237.147 244.807 236.484C244.712 235.82 245.186 235.251 245.85 235.251H283.575C284.238 235.251 284.902 235.82 284.997 236.484C285.092 237.147 284.618 237.716 283.954 237.716ZM247.461 244.255H285.092C285.755 244.255 286.229 243.687 286.134 243.023C286.04 242.36 285.376 241.791 284.713 241.791H246.987C246.324 241.791 245.85 242.36 245.945 243.023C246.134 243.687 246.798 244.255 247.461 244.255ZM277.319 250.701H248.599C247.935 250.701 247.272 250.132 247.082 249.469C246.988 248.805 247.462 248.237 248.125 248.237H276.94C277.603 248.237 278.267 248.805 278.361 249.469C278.456 250.132 277.982 250.701 277.319 250.701ZM245.755 187.195H283.386C284.049 187.195 284.523 186.626 284.428 185.963C284.334 185.299 283.67 184.73 283.007 184.73H245.281C244.618 184.73 244.144 185.299 244.239 185.963C244.428 186.626 245.092 187.195 245.755 187.195ZM237.604 188.332H239.784C240.448 188.332 240.922 187.763 240.732 187.1L240.353 184.919C240.258 184.161 239.5 183.592 238.836 183.592H236.656C235.993 183.592 235.519 184.161 235.614 184.825L236.088 187.005C236.182 187.763 236.941 188.332 237.604 188.332ZM246.988 194.398H284.618C285.282 194.398 285.756 193.83 285.661 193.166C285.566 192.503 284.902 191.934 284.239 191.934H246.608C245.945 191.934 245.471 192.503 245.566 193.166C245.661 193.83 246.324 194.398 246.988 194.398ZM238.836 195.536H241.017C241.68 195.536 242.154 194.967 242.059 194.303L241.68 192.123C241.585 191.365 240.827 190.796 240.163 190.796H237.983C237.32 190.796 236.846 191.365 236.941 192.029L237.32 194.209C237.415 194.967 238.173 195.536 238.836 195.536ZM248.314 201.602H285.944C286.608 201.602 287.082 201.033 286.987 200.37C286.892 199.706 286.229 199.138 285.565 199.138H247.84C247.176 199.138 246.703 199.706 246.797 200.37C246.987 201.033 247.65 201.602 248.314 201.602ZM240.161 202.74H242.341C243.004 202.74 243.478 202.171 243.383 201.507L243.004 199.327C242.909 198.569 242.151 198 241.488 198H239.308C238.644 198 238.17 198.569 238.265 199.232L238.644 201.413C238.739 202.171 239.497 202.74 240.161 202.74Z" fill="url(#paint14_linear_21_3462)"/>
<path d="M422.723 141.696H369.927C368.315 141.696 366.704 140.369 366.42 138.758C366.135 137.147 367.178 135.82 368.789 135.82H421.586C423.197 135.82 424.809 137.147 425.093 138.758C425.377 140.369 424.335 141.696 422.723 141.696Z" fill="white"/>
<path d="M434.655 142.928C434.56 142.928 434.56 142.928 434.465 142.833C433.233 141.696 432.475 140.274 432.19 138.758C432.096 138.189 432.096 137.62 432.096 137.051C432.096 136.957 432.19 136.862 432.38 136.862C432.475 136.862 432.57 137.051 432.57 137.146C432.475 137.62 432.57 138.189 432.664 138.758C432.949 140.179 433.707 141.506 434.844 142.549C434.939 142.644 434.939 142.738 434.844 142.833C434.75 142.833 434.75 142.928 434.655 142.928Z" fill="white"/>
<path d="M439.302 144.824C438.354 144.824 437.406 144.634 436.458 144.16C436.363 144.065 436.269 143.971 436.269 143.876C436.269 143.781 436.458 143.686 436.553 143.781C437.406 144.16 438.259 144.35 439.207 144.35C442.335 144.35 444.325 141.791 443.851 138.758C443.757 138.189 443.567 137.62 443.283 137.146C443.188 137.051 443.283 136.862 443.377 136.862C443.472 136.862 443.662 136.862 443.662 137.051C443.946 137.62 444.136 138.189 444.23 138.758C444.894 142.075 442.619 144.824 439.302 144.824Z" fill="white"/>
<path d="M433.043 135.345C432.949 135.345 432.949 135.345 432.854 135.25C432.759 135.155 432.664 135.061 432.759 134.966C433.612 133.544 435.223 132.691 437.119 132.691C438.825 132.691 440.626 133.449 441.953 134.681C442.048 134.776 442.048 134.871 441.953 134.966C441.858 135.061 441.764 135.061 441.669 134.966C440.437 133.734 438.731 133.07 437.119 133.07C435.413 133.07 433.896 133.828 433.138 135.155C433.233 135.345 433.138 135.345 433.043 135.345Z" fill="white"/>
<path d="M439.116 143.781C436.368 143.781 433.619 141.506 433.145 138.758C432.671 136.009 434.567 133.734 437.315 133.734C437.505 133.734 437.695 133.734 437.884 133.734C437.979 133.734 438.074 133.829 438.074 134.018C438.074 134.113 437.979 134.208 437.884 134.208C437.695 134.208 437.505 134.208 437.315 134.208C434.756 134.208 433.05 136.293 433.524 138.853C433.998 141.412 436.462 143.497 439.022 143.497C439.116 143.497 439.211 143.592 439.306 143.687C439.306 143.687 439.306 143.781 439.116 143.781Z" fill="white"/>
<path d="M441.106 143.402C441.012 143.402 440.917 143.402 440.917 143.307C440.822 143.212 440.917 143.023 441.012 143.023C442.528 142.265 443.286 140.653 443.002 138.852C442.718 137.241 441.58 135.63 439.969 134.871C439.874 134.777 439.779 134.682 439.874 134.587C439.874 134.492 440.064 134.492 440.159 134.492C441.865 135.44 443.192 137.051 443.476 138.852C443.666 140.748 442.813 142.549 441.106 143.402C441.201 143.402 441.106 143.402 441.106 143.402Z" fill="white"/>
<path d="M435.985 141.696C435.89 141.696 435.89 141.696 435.795 141.601C434.942 140.843 434.373 139.8 434.184 138.758C434.184 138.663 434.278 138.568 434.373 138.568C434.468 138.568 434.563 138.663 434.658 138.758C434.847 139.706 435.321 140.653 436.174 141.317C436.269 141.412 436.269 141.506 436.269 141.601C436.079 141.601 435.985 141.696 435.985 141.696Z" fill="white"/>
<path d="M439.016 142.833C438.447 142.833 437.878 142.739 437.31 142.454C437.215 142.36 437.12 142.265 437.12 142.17C437.12 142.075 437.31 141.98 437.404 142.075C437.878 142.265 438.447 142.36 438.921 142.36C439.964 142.36 440.912 141.886 441.48 141.033C441.575 140.938 441.67 140.938 441.765 141.033C441.859 141.127 441.954 141.222 441.859 141.317C441.196 142.265 440.153 142.833 439.016 142.833Z" fill="white"/>
<path d="M442.244 140.084C442.15 140.084 442.15 140.084 442.244 140.084C442.055 140.084 441.96 139.895 441.96 139.8C441.96 139.421 441.96 139.042 441.96 138.757C441.581 136.767 439.685 135.061 437.6 135.061C436.273 135.061 435.23 135.724 434.756 136.862C434.756 136.956 434.567 136.956 434.472 136.956C434.377 136.862 434.282 136.767 434.377 136.672C434.946 135.44 436.083 134.682 437.505 134.682C439.78 134.682 441.96 136.483 442.339 138.757C442.434 139.137 442.434 139.61 442.339 139.99C442.339 140.084 442.339 140.084 442.244 140.084Z" fill="white"/>
<path d="M437.695 135.819C436.083 135.819 435.041 137.146 435.325 138.758C435.609 140.369 437.126 141.696 438.737 141.696C440.349 141.696 441.391 140.369 441.107 138.758C440.917 137.146 439.306 135.819 437.695 135.819ZM438.832 139.137L438.927 139.895C439.022 140.179 438.832 140.369 438.453 140.369C438.074 140.369 437.884 140.179 437.884 139.895L437.789 139.137C437.41 138.947 437.126 138.568 437.031 138.189C436.936 137.62 437.315 137.052 437.884 137.052C438.453 137.052 439.022 137.525 439.211 138.189C439.306 138.568 439.116 138.947 438.832 139.137Z" fill="white"/>
<path d="M557.225 176.767C557.13 176.767 557.035 176.767 557.035 176.673C555.613 175.346 554.571 173.639 554.286 171.839C554.192 171.175 554.097 170.512 554.192 169.848C554.192 169.753 554.381 169.658 554.476 169.658C554.666 169.658 554.76 169.848 554.666 169.943C554.571 170.512 554.571 171.175 554.76 171.839C555.045 173.545 555.993 175.061 557.319 176.293C557.414 176.388 557.414 176.578 557.414 176.673C557.32 176.767 557.225 176.767 557.225 176.767Z" fill="white"/>
<path d="M562.723 179.042C561.585 179.042 560.448 178.758 559.311 178.284C559.216 178.189 559.121 178.094 559.121 177.905C559.121 177.81 559.311 177.715 559.405 177.81C560.448 178.284 561.491 178.473 562.533 178.473C566.23 178.473 568.694 175.44 568.031 171.839C567.936 171.175 567.747 170.512 567.367 169.943C567.273 169.848 567.367 169.658 567.462 169.658C567.557 169.658 567.747 169.658 567.841 169.848C568.126 170.512 568.41 171.175 568.505 171.933C569.358 175.819 566.704 179.042 562.723 179.042Z" fill="white"/>
<path d="M555.329 167.857C555.234 167.857 555.234 167.857 555.139 167.763C555.044 167.668 554.949 167.478 555.044 167.384C556.087 165.677 557.982 164.635 560.163 164.635C562.248 164.635 564.333 165.488 565.944 167.004C566.039 167.099 566.039 167.289 565.944 167.384C565.85 167.478 565.66 167.478 565.565 167.384C564.049 165.962 562.058 165.203 560.163 165.203C558.077 165.203 556.371 166.151 555.423 167.763C555.423 167.763 555.423 167.857 555.329 167.857Z" fill="white"/>
<path d="M562.53 177.904C559.213 177.904 555.99 175.156 555.421 171.838C554.852 168.521 557.033 165.772 560.35 165.772C560.634 165.772 560.824 165.772 561.108 165.772C561.298 165.772 561.393 165.962 561.393 166.056C561.393 166.151 561.298 166.341 561.108 166.246C560.919 166.246 560.634 166.246 560.445 166.246C557.412 166.246 555.326 168.71 555.895 171.743C556.464 174.777 559.307 177.241 562.34 177.241C562.53 177.241 562.625 177.336 562.625 177.525C562.72 177.81 562.625 177.904 562.53 177.904Z" fill="white"/>
<path d="M564.809 177.431C564.714 177.431 564.619 177.337 564.524 177.242C564.429 177.147 564.429 176.957 564.619 176.863C566.42 176.01 567.368 174.019 566.989 171.839C566.61 169.849 565.283 168.048 563.387 167.1C563.292 167.005 563.197 166.91 563.197 166.721C563.292 166.626 563.387 166.531 563.576 166.626C565.662 167.669 567.178 169.659 567.557 171.839C567.937 174.209 566.989 176.389 564.998 177.337C564.903 177.431 564.903 177.431 564.809 177.431Z" fill="white"/>
<path d="M558.739 175.346C558.644 175.346 558.644 175.346 558.549 175.251C557.506 174.303 556.843 173.166 556.559 171.839C556.559 171.649 556.653 171.554 556.748 171.554C556.938 171.554 557.033 171.649 557.033 171.839C557.222 172.976 557.886 174.019 558.833 174.872C558.928 174.966 559.023 175.156 558.928 175.251C558.833 175.346 558.833 175.346 558.739 175.346Z" fill="white"/>
<path d="M562.343 176.767C561.68 176.767 561.016 176.673 560.353 176.388C560.258 176.294 560.163 176.199 560.163 176.009C560.163 175.914 560.353 175.82 560.447 175.914C561.016 176.199 561.68 176.294 562.248 176.294C563.575 176.294 564.618 175.725 565.281 174.682C565.376 174.587 565.471 174.587 565.661 174.682C565.755 174.777 565.85 174.967 565.755 175.061C564.997 176.104 563.765 176.767 562.343 176.767Z" fill="white"/>
<path d="M566.133 173.545C565.943 173.45 565.848 173.355 565.848 173.165C565.943 172.786 565.848 172.312 565.848 171.838C565.374 169.469 563.1 167.478 560.73 167.478C559.213 167.478 557.981 168.237 557.412 169.564C557.318 169.658 557.223 169.753 557.033 169.658C556.939 169.564 556.844 169.469 556.844 169.279C557.507 167.858 558.834 166.91 560.635 166.91C563.289 166.91 565.943 169.09 566.417 171.744C566.512 172.218 566.512 172.692 566.417 173.165C566.322 173.45 566.227 173.545 566.133 173.545Z" fill="white"/>
<path d="M560.826 168.426C558.931 168.426 557.604 169.943 557.983 171.933C558.362 173.829 560.163 175.44 562.059 175.44C563.954 175.44 565.281 173.924 564.902 171.933C564.618 169.943 562.722 168.426 560.826 168.426ZM562.153 172.312L562.343 173.26C562.438 173.639 562.153 173.924 561.869 173.924C561.585 173.924 561.205 173.639 561.111 173.26L560.921 172.312C560.447 172.123 560.163 171.649 560.068 171.175C559.973 170.417 560.447 169.848 561.111 169.848C561.774 169.848 562.532 170.417 562.627 171.175C562.722 171.649 562.532 172.123 562.153 172.312Z" fill="white"/>
<g filter="url(#filter1_d_21_3462)">
<path d="M525.566 332.882H338.361C336.276 332.882 334.285 331.176 333.906 329.091L302.436 160.654C302.057 158.568 303.384 156.862 305.564 156.862H492.864C494.949 156.862 496.94 158.568 497.319 160.654L528.788 329.185C529.073 331.271 527.651 332.882 525.566 332.882Z" fill="white"/>
</g>
<path d="M442.125 254.786L439.661 238.353C438.648 232.735 435.727 227.64 431.395 223.931C427.062 220.223 421.582 218.129 415.885 218.004C413.334 217.951 410.803 218.469 408.476 219.519C406.15 220.568 404.085 222.124 402.433 224.072C400.781 226.021 399.583 228.313 398.926 230.783C398.268 233.253 398.168 235.839 398.632 238.353L401.097 254.786C400.063 254.754 399.036 254.955 398.091 255.375C397.146 255.796 396.308 256.424 395.638 257.213C394.969 258.002 394.485 258.933 394.224 259.935C393.962 260.937 393.93 261.985 394.128 263.002L398.377 291.78C398.763 294.029 399.913 296.076 401.632 297.573C403.351 299.07 405.534 299.927 407.811 299.997H448.903C449.937 300.029 450.964 299.827 451.909 299.407C452.854 298.987 453.692 298.359 454.362 297.569C455.031 296.78 455.515 295.85 455.776 294.847C456.038 293.845 456.07 292.797 455.872 291.78L451.623 263.002C451.235 260.742 450.075 258.688 448.343 257.189C446.611 255.691 444.413 254.841 442.125 254.786ZM425.914 283.564C424.205 283.51 422.567 282.866 421.278 281.741C419.988 280.616 419.127 279.079 418.838 277.391C418.691 276.629 418.717 275.844 418.914 275.094C419.111 274.344 419.474 273.648 419.976 273.057C420.478 272.466 421.106 271.996 421.814 271.681C422.522 271.367 423.291 271.216 424.065 271.239C425.773 271.292 427.412 271.932 428.704 273.052C429.997 274.173 430.865 275.705 431.162 277.391C431.309 278.156 431.282 278.943 431.084 279.696C430.886 280.449 430.521 281.148 430.018 281.74C429.514 282.333 428.883 282.805 428.173 283.12C427.463 283.436 426.69 283.588 425.914 283.564ZM434.03 254.786H409.298L406.834 238.353C406.536 236.828 406.585 235.256 406.978 233.752C407.37 232.249 408.095 230.854 409.099 229.67C410.103 228.486 411.361 227.543 412.779 226.913C414.196 226.283 415.737 225.98 417.287 226.028C420.703 226.139 423.977 227.424 426.558 229.669C429.139 231.913 430.87 234.98 431.459 238.353L434.03 254.786Z" fill="url(#paint15_linear_21_3462)"/>
<path d="M339.481 183.98H336.343L338.228 181.638C338.45 181.307 338.542 180.898 338.484 180.498C338.426 180.097 338.223 179.735 337.918 179.489C337.648 179.204 337.281 179.044 336.899 179.044C336.517 179.044 336.151 179.204 335.881 179.489L333.996 181.831L333.528 178.521C333.458 178.105 333.255 177.727 332.953 177.45C332.651 177.173 332.268 177.014 331.868 177C331.687 176.997 331.508 177.036 331.344 177.115C331.179 177.194 331.034 177.31 330.917 177.456C330.801 177.601 330.717 177.772 330.671 177.956C330.625 178.141 330.618 178.333 330.652 178.521L331.126 181.831L328.572 179.489C328.301 179.204 327.933 179.044 327.551 179.044C327.168 179.044 326.8 179.204 326.529 179.489C326.307 179.82 326.215 180.229 326.273 180.63C326.331 181.031 326.534 181.392 326.839 181.638L329.393 183.98H326.237C326.057 183.976 325.878 184.016 325.713 184.094C325.549 184.173 325.403 184.289 325.287 184.435C325.17 184.581 325.086 184.752 325.04 184.936C324.994 185.12 324.988 185.313 325.021 185.5C325.089 185.915 325.291 186.293 325.592 186.57C325.893 186.847 326.276 187.006 326.675 187.02H329.819L327.934 189.362C327.709 189.691 327.615 190.1 327.672 190.501C327.729 190.903 327.932 191.265 328.238 191.511C328.508 191.796 328.874 191.956 329.256 191.956C329.638 191.956 330.004 191.796 330.275 191.511L332.16 189.169L332.634 192.479C332.704 192.895 332.908 193.272 333.21 193.549C333.512 193.825 333.894 193.984 334.294 194C334.474 194.003 334.653 193.964 334.818 193.885C334.982 193.806 335.128 193.69 335.244 193.544C335.361 193.399 335.445 193.228 335.491 193.044C335.537 192.859 335.543 192.667 335.51 192.479L335.036 189.169L337.589 191.511C337.86 191.796 338.226 191.956 338.608 191.956C338.99 191.956 339.356 191.796 339.626 191.511C339.851 191.181 339.945 190.772 339.888 190.371C339.831 189.97 339.628 189.608 339.322 189.362L336.769 187.02H339.906C340.087 187.024 340.266 186.984 340.43 186.906C340.594 186.827 340.74 186.711 340.857 186.565C340.973 186.419 341.057 186.248 341.103 186.064C341.149 185.88 341.156 185.687 341.122 185.5C341.055 185.087 340.855 184.711 340.556 184.434C340.257 184.157 339.878 183.997 339.481 183.98Z" fill="url(#paint16_linear_21_3462)"/>
<path d="M360.465 183.98H357.321L359.206 181.638C359.429 181.308 359.522 180.9 359.465 180.499C359.408 180.098 359.206 179.736 358.902 179.489C358.632 179.204 358.265 179.044 357.883 179.044C357.501 179.044 357.135 179.204 356.865 179.489L354.98 181.831L354.506 178.521C354.436 178.105 354.233 177.727 353.931 177.45C353.629 177.173 353.246 177.014 352.846 177C352.665 176.997 352.486 177.036 352.322 177.115C352.157 177.194 352.012 177.31 351.895 177.456C351.779 177.601 351.695 177.772 351.649 177.956C351.603 178.141 351.596 178.333 351.63 178.521L352.104 181.831L349.55 179.489C349.28 179.204 348.913 179.044 348.532 179.044C348.15 179.044 347.783 179.204 347.513 179.489C347.289 179.819 347.195 180.228 347.252 180.629C347.308 181.03 347.511 181.392 347.817 181.638L350.371 183.98H347.233C347.053 183.976 346.874 184.016 346.709 184.094C346.545 184.173 346.399 184.289 346.283 184.435C346.166 184.581 346.082 184.752 346.036 184.936C345.99 185.12 345.984 185.313 346.017 185.5C346.087 185.916 346.29 186.294 346.592 186.571C346.894 186.847 347.277 187.006 347.677 187.02H350.815L348.93 189.362C348.706 189.692 348.613 190.101 348.671 190.503C348.729 190.904 348.933 191.266 349.24 191.511C349.51 191.796 349.876 191.956 350.258 191.956C350.64 191.956 351.007 191.796 351.277 191.511L353.156 189.169L353.63 192.479C353.701 192.895 353.904 193.272 354.206 193.549C354.508 193.825 354.89 193.984 355.29 194C355.471 194.003 355.65 193.964 355.814 193.885C355.978 193.806 356.124 193.69 356.24 193.544C356.357 193.399 356.441 193.228 356.487 193.044C356.533 192.859 356.54 192.667 356.506 192.479L356.032 189.169L358.586 191.511C358.857 191.796 359.224 191.956 359.607 191.956C359.99 191.956 360.357 191.796 360.629 191.511C360.851 191.18 360.943 190.771 360.885 190.37C360.827 189.969 360.624 189.608 360.319 189.362L357.765 187.02H360.896C361.077 187.024 361.256 186.984 361.42 186.906C361.585 186.827 361.73 186.711 361.847 186.565C361.963 186.419 362.047 186.248 362.093 186.064C362.139 185.88 362.146 185.687 362.112 185.5C362.045 185.085 361.845 184.708 361.545 184.431C361.245 184.154 360.863 183.994 360.465 183.98Z" fill="url(#paint17_linear_21_3462)"/>
<path d="M381.442 183.98H378.305L380.184 181.638C380.408 181.309 380.502 180.9 380.445 180.499C380.388 180.097 380.185 179.735 379.88 179.489C379.609 179.204 379.243 179.044 378.861 179.044C378.479 179.044 378.113 179.204 377.843 179.489L375.958 181.831L375.483 178.521C375.415 178.104 375.212 177.726 374.91 177.449C374.607 177.172 374.224 177.013 373.823 177C373.643 176.997 373.464 177.036 373.299 177.115C373.135 177.194 372.989 177.31 372.873 177.456C372.756 177.601 372.672 177.772 372.626 177.956C372.58 178.141 372.574 178.333 372.607 178.521L373.082 181.831L370.528 179.489C370.257 179.204 369.891 179.044 369.509 179.044C369.127 179.044 368.761 179.204 368.491 179.489C368.268 179.819 368.175 180.228 368.232 180.628C368.288 181.029 368.49 181.391 368.795 181.638L371.355 183.98H368.193C368.012 183.976 367.833 184.016 367.669 184.094C367.504 184.173 367.359 184.289 367.242 184.435C367.126 184.581 367.042 184.752 366.996 184.936C366.95 185.12 366.943 185.313 366.977 185.5C367.047 185.915 367.25 186.293 367.552 186.569C367.854 186.846 368.237 187.005 368.637 187.02H371.774L369.889 189.362C369.667 189.693 369.575 190.102 369.633 190.502C369.691 190.903 369.894 191.265 370.199 191.511C370.47 191.796 370.836 191.956 371.218 191.956C371.6 191.956 371.966 191.796 372.236 191.511L374.121 189.169L374.596 192.479C374.664 192.895 374.865 193.273 375.167 193.549C375.468 193.826 375.85 193.985 376.249 194C376.43 194.003 376.609 193.964 376.773 193.885C376.938 193.806 377.083 193.69 377.2 193.544C377.316 193.399 377.401 193.228 377.447 193.044C377.492 192.859 377.499 192.667 377.466 192.479L376.991 189.169L379.545 191.511C379.815 191.796 380.182 191.956 380.564 191.956C380.946 191.956 381.312 191.796 381.582 191.511C381.804 191.18 381.896 190.771 381.838 190.37C381.78 189.969 381.577 189.608 381.272 189.362L378.718 187.02H381.856C382.036 187.024 382.215 186.984 382.38 186.906C382.544 186.827 382.69 186.711 382.806 186.565C382.923 186.419 383.007 186.248 383.053 186.064C383.099 185.88 383.105 185.687 383.072 185.5C383.006 185.088 382.808 184.713 382.511 184.436C382.215 184.16 381.838 183.999 381.442 183.98Z" fill="url(#paint18_linear_21_3462)"/>
<path d="M402.42 183.98H399.282L401.167 181.638C401.39 181.307 401.481 180.898 401.424 180.498C401.366 180.097 401.163 179.735 400.857 179.489C400.587 179.204 400.221 179.044 399.839 179.044C399.457 179.044 399.09 179.204 398.82 179.489L396.935 181.831L396.461 178.521C396.394 178.105 396.193 177.726 395.891 177.449C395.59 177.172 395.207 177.013 394.807 177C394.627 176.997 394.448 177.036 394.283 177.115C394.119 177.194 393.973 177.31 393.857 177.456C393.74 177.601 393.656 177.772 393.61 177.956C393.564 178.141 393.558 178.333 393.591 178.521L394.065 181.831L391.511 179.489C391.241 179.204 390.875 179.044 390.493 179.044C390.111 179.044 389.745 179.204 389.474 179.489C389.252 179.82 389.16 180.229 389.218 180.63C389.276 181.031 389.479 181.392 389.785 181.638L392.338 183.98H389.201C389.02 183.976 388.841 184.016 388.677 184.094C388.513 184.173 388.367 184.289 388.25 184.435C388.134 184.581 388.05 184.752 388.004 184.936C387.958 185.12 387.951 185.313 387.985 185.5C388.055 185.915 388.258 186.293 388.56 186.569C388.862 186.846 389.245 187.005 389.645 187.02H392.782L390.897 189.362C390.675 189.693 390.583 190.102 390.641 190.502C390.699 190.903 390.902 191.265 391.207 191.511C391.478 191.796 391.844 191.956 392.226 191.956C392.608 191.956 392.974 191.796 393.244 191.511L395.129 189.169L395.604 192.479C395.673 192.895 395.876 193.273 396.178 193.55C396.48 193.827 396.864 193.986 397.264 194C397.444 194.003 397.623 193.964 397.788 193.885C397.952 193.806 398.098 193.69 398.214 193.544C398.331 193.399 398.415 193.228 398.461 193.044C398.507 192.859 398.513 192.667 398.48 192.479L398.005 189.169L400.559 191.511C400.829 191.796 401.196 191.956 401.578 191.956C401.96 191.956 402.326 191.796 402.596 191.511C402.818 191.18 402.91 190.771 402.852 190.37C402.795 189.969 402.592 189.608 402.286 189.362L399.732 187.02H402.852C403.032 187.024 403.211 186.984 403.376 186.906C403.54 186.827 403.686 186.711 403.802 186.565C403.918 186.419 404.003 186.248 404.049 186.064C404.095 185.88 404.101 185.687 404.068 185.5C403.999 185.086 403.798 184.71 403.498 184.433C403.198 184.157 402.818 183.997 402.42 183.98Z" fill="url(#paint19_linear_21_3462)"/>
<path d="M423.398 183.98H420.26L422.145 181.638C422.367 181.307 422.459 180.898 422.401 180.498C422.344 180.097 422.141 179.735 421.835 179.489C421.565 179.204 421.199 179.044 420.817 179.044C420.435 179.044 420.068 179.204 419.798 179.489L417.913 181.831L417.439 178.521C417.372 178.105 417.17 177.726 416.869 177.449C416.568 177.172 416.185 177.013 415.785 177C415.604 176.997 415.426 177.036 415.261 177.115C415.097 177.194 414.951 177.31 414.835 177.456C414.718 177.601 414.634 177.772 414.588 177.956C414.542 178.141 414.535 178.333 414.569 178.521L415.043 181.831L412.483 179.489C412.213 179.204 411.847 179.044 411.465 179.044C411.083 179.044 410.717 179.204 410.446 179.489C410.224 179.82 410.132 180.229 410.19 180.63C410.248 181.031 410.451 181.392 410.756 181.638L413.31 183.98H410.148C409.968 183.976 409.789 184.016 409.624 184.094C409.46 184.173 409.314 184.289 409.198 184.435C409.082 184.581 408.997 184.752 408.951 184.936C408.905 185.12 408.899 185.313 408.932 185.5C409 185.915 409.202 186.293 409.503 186.57C409.805 186.847 410.187 187.006 410.586 187.02H413.73L411.845 189.362C411.62 189.691 411.527 190.1 411.583 190.501C411.64 190.903 411.843 191.265 412.149 191.511C412.419 191.796 412.785 191.956 413.167 191.956C413.549 191.956 413.916 191.796 414.186 191.511L416.071 189.169L416.545 192.479C416.615 192.895 416.817 193.273 417.12 193.55C417.422 193.827 417.805 193.986 418.205 194C418.386 194.003 418.565 193.964 418.729 193.885C418.893 193.806 419.039 193.69 419.155 193.544C419.272 193.399 419.356 193.228 419.402 193.044C419.448 192.859 419.455 192.667 419.421 192.479L418.947 189.169L421.501 191.511C421.771 191.796 422.137 191.956 422.519 191.956C422.901 191.956 423.267 191.796 423.538 191.511C423.761 191.181 423.853 190.772 423.797 190.372C423.74 189.971 423.538 189.609 423.234 189.362L420.68 187.02H423.817C423.998 187.024 424.177 186.984 424.341 186.906C424.506 186.827 424.651 186.711 424.768 186.565C424.884 186.419 424.969 186.248 425.014 186.064C425.06 185.88 425.067 185.687 425.034 185.5C424.966 185.088 424.767 184.712 424.469 184.436C424.172 184.159 423.794 183.998 423.398 183.98Z" fill="url(#paint20_linear_21_3462)"/>
<path d="M444.376 183.98H441.238L443.123 181.638C443.346 181.308 443.439 180.9 443.382 180.499C443.325 180.098 443.124 179.736 442.819 179.489C442.549 179.204 442.183 179.044 441.801 179.044C441.419 179.044 441.052 179.204 440.782 179.489L438.897 181.831L438.423 178.521C438.353 178.105 438.15 177.727 437.848 177.45C437.546 177.173 437.163 177.014 436.763 177C436.582 176.997 436.403 177.036 436.239 177.115C436.075 177.194 435.929 177.31 435.812 177.456C435.696 177.601 435.612 177.772 435.566 177.956C435.52 178.141 435.513 178.333 435.547 178.521L436.021 181.831L433.467 179.489C433.197 179.204 432.831 179.044 432.449 179.044C432.067 179.044 431.7 179.204 431.43 179.489C431.206 179.819 431.112 180.228 431.169 180.629C431.226 181.03 431.428 181.392 431.734 181.638L434.288 183.98H431.151C430.97 183.976 430.791 184.016 430.627 184.094C430.462 184.173 430.317 184.289 430.2 184.435C430.084 184.581 429.999 184.752 429.953 184.936C429.907 185.12 429.901 185.313 429.934 185.5C430.004 185.916 430.207 186.294 430.509 186.571C430.811 186.847 431.194 187.006 431.594 187.02H434.732L432.847 189.362C432.624 189.692 432.531 190.1 432.588 190.501C432.645 190.902 432.847 191.264 433.151 191.511C433.422 191.796 433.79 191.956 434.173 191.956C434.555 191.956 434.923 191.796 435.194 191.511L437.073 189.169L437.547 192.479C437.618 192.895 437.821 193.272 438.123 193.549C438.425 193.825 438.808 193.984 439.207 194C439.388 194.003 439.567 193.964 439.731 193.885C439.895 193.806 440.041 193.69 440.158 193.544C440.274 193.399 440.358 193.228 440.404 193.044C440.45 192.859 440.457 192.667 440.423 192.479L439.949 189.169L442.503 191.511C442.773 191.796 443.139 191.956 443.521 191.956C443.903 191.956 444.27 191.796 444.54 191.511C444.764 191.181 444.858 190.772 444.801 190.371C444.744 189.97 444.542 189.608 444.236 189.362L441.682 187.02H444.807C444.988 187.024 445.167 186.984 445.331 186.906C445.496 186.827 445.641 186.711 445.758 186.565C445.874 186.419 445.959 186.248 446.004 186.064C446.05 185.88 446.057 185.687 446.023 185.5C445.956 185.086 445.755 184.709 445.455 184.432C445.155 184.155 444.774 183.996 444.376 183.98Z" fill="url(#paint21_linear_21_3462)"/>
<path d="M465.36 183.98H462.222L464.101 181.638C464.325 181.309 464.419 180.9 464.362 180.499C464.305 180.097 464.103 179.735 463.797 179.489C463.527 179.204 463.16 179.044 462.778 179.044C462.396 179.044 462.03 179.204 461.76 179.489L459.875 181.831L459.401 178.521C459.332 178.104 459.13 177.726 458.827 177.449C458.525 177.172 458.141 177.013 457.741 177C457.56 176.997 457.381 177.036 457.217 177.115C457.052 177.194 456.907 177.31 456.79 177.456C456.674 177.601 456.59 177.772 456.544 177.956C456.498 178.141 456.491 178.333 456.525 178.521L456.999 181.831L454.445 179.489C454.175 179.204 453.808 179.044 453.426 179.044C453.045 179.044 452.678 179.204 452.408 179.489C452.185 179.819 452.092 180.228 452.149 180.628C452.206 181.029 452.408 181.391 452.712 181.638L455.266 183.98H452.104C451.923 183.976 451.745 184.016 451.58 184.094C451.416 184.173 451.27 184.289 451.154 184.435C451.037 184.581 450.953 184.752 450.907 184.936C450.861 185.12 450.854 185.313 450.888 185.5C450.958 185.915 451.162 186.293 451.464 186.569C451.766 186.846 452.148 187.005 452.548 187.02H455.685L453.8 189.362C453.578 189.693 453.486 190.102 453.544 190.502C453.602 190.903 453.805 191.265 454.111 191.511C454.381 191.796 454.747 191.956 455.129 191.956C455.511 191.956 455.877 191.796 456.148 191.511L458.033 189.169L458.507 192.479C458.575 192.895 458.777 193.273 459.078 193.549C459.379 193.826 459.761 193.985 460.161 194C460.341 194.003 460.52 193.964 460.685 193.885C460.849 193.806 460.995 193.69 461.111 193.544C461.228 193.399 461.312 193.228 461.358 193.044C461.404 192.859 461.41 192.667 461.377 192.479L460.909 189.169L463.462 191.511C463.733 191.796 464.099 191.956 464.481 191.956C464.863 191.956 465.229 191.796 465.499 191.511C465.722 191.18 465.813 190.771 465.756 190.37C465.698 189.969 465.495 189.608 465.189 189.362L462.635 187.02H465.773C465.954 187.024 466.132 186.984 466.297 186.906C466.461 186.827 466.607 186.711 466.723 186.565C466.84 186.419 466.924 186.248 466.97 186.064C467.016 185.88 467.023 185.687 466.989 185.5C466.923 185.088 466.725 184.713 466.429 184.436C466.132 184.16 465.755 183.999 465.36 183.98Z" fill="url(#paint22_linear_21_3462)"/>
<path d="M486.337 183.98H483.2L485.085 181.638C485.307 181.307 485.399 180.898 485.341 180.498C485.283 180.097 485.08 179.735 484.775 179.489C484.504 179.204 484.138 179.044 483.756 179.044C483.374 179.044 483.008 179.204 482.738 179.489L480.853 181.831L480.378 178.521C480.311 178.104 480.109 177.724 479.806 177.447C479.503 177.17 479.119 177.012 478.718 177C478.538 176.997 478.359 177.036 478.194 177.115C478.03 177.194 477.884 177.31 477.768 177.456C477.651 177.601 477.567 177.772 477.521 177.956C477.475 178.141 477.469 178.333 477.502 178.521L477.977 181.831L475.423 179.489C475.152 179.204 474.786 179.044 474.404 179.044C474.022 179.044 473.656 179.204 473.386 179.489C473.164 179.82 473.072 180.229 473.13 180.63C473.187 181.031 473.39 181.392 473.696 181.638L476.25 183.98H473.112C472.932 183.976 472.753 184.016 472.588 184.094C472.424 184.173 472.278 184.289 472.162 184.435C472.045 184.581 471.961 184.752 471.915 184.936C471.869 185.12 471.863 185.313 471.896 185.5C471.967 185.915 472.17 186.293 472.472 186.569C472.774 186.846 473.156 187.005 473.556 187.02H476.694L474.809 189.362C474.586 189.693 474.495 190.102 474.552 190.502C474.61 190.903 474.813 191.265 475.119 191.511C475.389 191.796 475.755 191.956 476.137 191.956C476.519 191.956 476.885 191.796 477.156 191.511L479.041 189.169L479.515 192.479C479.583 192.895 479.785 193.273 480.086 193.549C480.387 193.826 480.77 193.985 481.169 194C481.349 194.003 481.528 193.964 481.693 193.885C481.857 193.806 482.003 193.69 482.119 193.544C482.236 193.399 482.32 193.228 482.366 193.044C482.412 192.859 482.418 192.667 482.385 192.479L481.911 189.169L484.464 191.511C484.735 191.796 485.101 191.956 485.483 191.956C485.865 191.956 486.231 191.796 486.501 191.511C486.724 191.18 486.815 190.771 486.758 190.37C486.7 189.969 486.497 189.608 486.191 189.362L483.637 187.02H486.763C486.943 187.024 487.122 186.984 487.287 186.906C487.451 186.827 487.597 186.711 487.713 186.565C487.83 186.419 487.914 186.248 487.96 186.064C488.006 185.88 488.012 185.687 487.979 185.5C487.91 185.087 487.71 184.712 487.411 184.435C487.113 184.159 486.734 183.998 486.337 183.98Z" fill="url(#paint23_linear_21_3462)"/>
<path d="M767.141 236.075C767.141 236.075 680.241 275.888 656.565 304.656C632.889 333.424 577.534 343.146 573.368 352.67C569.201 362.193 555.313 412.257 588.38 421.185H825.207C825.207 421.185 878.577 363.516 858.473 297.712C838.368 231.908 783.873 227.874 767.141 236.075Z" fill="url(#paint24_linear_21_3462)"/>
<path d="M786.849 330.713C767.803 354.984 741.613 379.983 716.284 391.424C690.955 402.865 677.595 421.184 677.595 421.184H588.38C555.313 412.256 569.201 362.193 573.368 352.669C577.534 343.146 632.889 333.49 656.565 304.656C668.138 290.635 694.658 273.97 718.863 260.61C730.371 256.047 762.644 245.201 785.527 257.039C813.898 271.787 805.896 306.442 786.849 330.713Z" fill="url(#paint25_linear_21_3462)"/>
<path d="M663.309 283.625C663.309 283.625 632.226 293.545 632.821 294.934C633.416 296.323 661.259 319.933 661.259 319.933L669.922 315.039L673.031 303.003L663.309 283.625Z" fill="url(#paint26_linear_21_3462)"/>
<path d="M698.03 267.158C698.03 267.158 664.037 280.782 661.656 283.625C661.656 283.625 666.749 304.458 671.576 306.309L682.224 305.053L698.03 267.158Z" fill="url(#paint27_linear_21_3462)"/>
<path d="M615.429 248.574C615.429 248.574 611.527 277.872 613.511 283.361L633.814 292.223C633.814 292.223 625.415 254.659 624.026 248.971C623.96 248.971 617.479 244.672 615.429 248.574Z" fill="url(#paint28_linear_21_3462)"/>
<path d="M465.966 396.847L455.45 405.246L476.944 412.918L478.994 408.884L479.655 402.336L465.966 396.847Z" fill="url(#paint29_linear_21_3462)"/>
<path d="M533.555 398.038L528.33 405.246L549.824 412.918L551.874 408.884L550.75 403.196L533.555 398.038Z" fill="url(#paint30_linear_21_3462)"/>
<path d="M655.904 262.462H619.927C617.811 262.462 616.555 260.743 617.084 258.627L631.633 196.923C632.162 194.807 634.212 193.088 636.329 193.088H672.306C674.422 193.088 675.679 194.807 675.15 196.923L660.6 258.627C660.071 260.743 657.955 262.462 655.904 262.462Z" fill="url(#paint31_linear_21_3462)"/>
<path d="M552.005 407.098C552.005 407.098 533.686 412.256 530.379 401.344C530.379 401.344 515.962 406.304 505.579 413.381C497.246 415.1 491.691 414.108 492.418 423.235L551.873 423.565C551.873 423.499 555.312 416.423 552.005 407.098Z" fill="url(#paint32_linear_21_3462)"/>
<path d="M479.127 407.098C479.127 407.098 460.808 412.256 457.502 401.344C457.502 401.344 443.084 406.304 432.701 413.381C424.368 415.1 418.813 414.108 419.541 423.235L478.995 423.565C479.061 423.499 482.5 416.423 479.127 407.098Z" fill="url(#paint33_linear_21_3462)"/>
<path d="M463.388 397.574C463.388 397.574 472.779 404.651 479.789 404.849L537.194 315.237C537.194 315.237 573.237 369.269 602.666 382.562C616.422 388.845 638.908 388.58 660.137 389.704C681.366 390.829 666.155 351.28 666.155 351.28C666.155 351.28 571.782 283.956 547.973 273.639C537.127 269.009 533.226 268.216 525.686 280.186C518.147 292.223 496.984 322.777 463.388 397.574Z" fill="url(#paint34_linear_21_3462)"/>
<path d="M661.261 315.568C661.261 315.568 691.55 274.962 692.675 272.647C692.675 272.647 695.122 261.999 723.493 263.19C751.865 264.38 785.13 269.539 790.619 282.435C796.109 295.265 769.655 337.657 769.655 337.657C769.655 337.657 745.317 383.223 705.24 389.176L661.261 315.568Z" fill="url(#paint35_linear_21_3462)"/>
<path d="M616.62 239.911C616.62 239.911 614.372 248.376 615.43 248.574C616.488 248.773 626.408 249.5 627.069 248.442C627.731 247.384 627.202 244.342 628.127 244.474C629.053 244.606 628.723 243.019 628.127 242.424C627.532 241.828 625.085 239.381 625.085 239.381C625.085 239.381 633.286 238.522 633.021 236.207C632.757 233.892 624.622 235.215 624.622 235.215C624.622 235.215 635.733 232.966 635.534 229.065C635.534 227.147 628.392 230.321 627.202 230.321C626.011 230.321 620.853 230.85 620.787 232.107C620.654 233.363 616.885 238.456 616.62 239.911Z" fill="url(#paint36_linear_21_3462)"/>
<path d="M532.234 398.038C532.234 398.038 537.525 405.577 551.413 407.363L596.583 323.438C596.583 323.438 638.446 385.141 660.204 389.639C683.814 389.639 705.242 389.109 705.242 389.109C705.242 389.109 720.585 374.957 709.21 349.826C709.21 349.826 704.58 340.831 693.734 340.435C693.734 340.435 623.566 276.747 600.617 270.002C600.617 270.002 591.954 267.158 584.613 277.21C571.584 295.199 532.234 398.038 532.234 398.038Z" fill="url(#paint37_linear_21_3462)"/>
<path d="M721.509 264.116C721.509 264.116 722.567 277.144 731.231 276.417C739.894 275.689 748.888 265.306 748.888 265.306L750.409 250.36C750.409 250.294 722.435 260.346 721.509 264.116Z" fill="url(#paint38_linear_21_3462)"/>
<path fill-rule="evenodd" clip-rule="evenodd" d="M673.675 253.886C674.659 248.577 666.816 232.239 666.816 232.239C666.816 232.239 661.989 228.932 660.732 228.535C660.388 228.473 659.762 228.221 659.003 227.916C656.551 226.931 652.702 225.384 652.399 227.808C652.002 230.982 661.79 234.686 661.79 234.686C661.79 234.686 650.283 232.107 649.621 234.752C648.96 237.397 658.483 239.58 658.483 239.58C649.688 239.58 647.373 246.921 650.018 249.169C652.276 251.089 657.377 250.599 659.728 250.373C660.131 250.334 660.453 250.303 660.666 250.294C662.121 250.227 660.864 257.701 660.864 257.701C661.151 258.595 661.674 259.206 662.351 259.581C663.54 264.65 675.918 313.678 714.963 336.929C714.963 336.929 714.977 336.917 715.004 336.892L715.028 336.93C732.818 336.533 754.113 323.901 754.113 323.901L743.465 294.736L721.773 306.404C710.049 289.34 678.775 258.824 673.675 253.886Z" fill="url(#paint39_linear_21_3462)"/>
<path d="M739.498 293.612C739.498 293.612 745.516 318.61 752.791 325.951C752.791 325.951 788.57 314.113 788.57 291.495C786.254 265.174 767.142 275.292 767.142 275.292L739.498 293.612Z" fill="url(#paint40_linear_21_3462)"/>
<path d="M714.301 212.795C714.301 212.795 703.454 240.175 716.88 263.454C720.649 268.811 744.855 261.999 751.137 248.905C757.486 235.81 750.211 211.803 738.638 209.885C727.131 208.1 714.301 212.795 714.301 212.795Z" fill="url(#paint41_linear_21_3462)"/>
<path d="M714.564 218.946C714.564 218.946 707.62 215.11 708.282 203.206C708.943 191.302 724.485 191.765 729.048 194.146C733.611 196.526 741.613 198.246 745.648 197.849C749.682 197.518 762.975 202.412 763.768 214.581C764.562 226.75 762.115 243.945 750.409 250.294L750.806 235.876L748.954 239.58C748.954 239.58 746.772 239.315 747.301 237.86C747.83 236.471 748.558 230.123 746.177 225.625C743.796 221.128 744.391 219.277 744.391 219.277C744.391 219.277 734.471 216.367 734.405 214.978C734.537 215.044 723.757 224.17 714.564 218.946Z" fill="url(#paint42_linear_21_3462)"/>
<path d="M755.076 242.003C756.53 238.812 756.173 235.526 754.279 234.662C752.385 233.799 749.67 235.685 748.216 238.875C746.761 242.066 747.118 245.352 749.012 246.216C750.906 247.08 753.621 245.193 755.076 242.003Z" fill="url(#paint43_linear_21_3462)"/>
<g filter="url(#filter2_d_21_3462)">
<path d="M602 151.306V87.5209C602 82.8342 605.847 79 610.549 79H693.451C698.153 79 702 82.8342 702 87.5209V151.306C702 155.993 698.153 159.827 693.451 159.827H662.703L652.016 179L641.329 159.827H610.549C605.847 159.827 602 155.993 602 151.306Z" fill="white"/>
</g>
<path d="M663.51 114.667V105.759C663.417 102.867 662.2 100.124 660.117 98.1109C658.033 96.0978 655.247 94.9722 652.348 94.9722C649.448 94.9722 646.662 96.0978 644.579 98.1109C642.495 100.124 641.279 102.867 641.185 105.759V114.667C640.002 114.667 638.867 115.136 638.03 115.971C637.193 116.806 636.723 117.939 636.723 119.12V134.72C636.723 135.901 637.193 137.034 638.03 137.869C638.867 138.704 640.002 139.173 641.185 139.173H663.51C664.694 139.173 665.829 138.704 666.666 137.869C667.502 137.034 667.973 135.901 667.973 134.72V119.12C667.973 117.939 667.502 116.806 666.666 115.971C665.829 115.136 664.694 114.667 663.51 114.667ZM652.353 130.266C651.69 130.268 651.04 130.074 650.488 129.708C649.935 129.342 649.503 128.82 649.248 128.209C648.992 127.597 648.924 126.924 649.052 126.274C649.18 125.625 649.499 125.027 649.967 124.558C650.435 124.089 651.033 123.769 651.684 123.639C652.334 123.509 653.009 123.575 653.622 123.828C654.236 124.081 654.76 124.509 655.129 125.06C655.498 125.61 655.695 126.258 655.695 126.92C655.695 127.798 655.349 128.64 654.733 129.266C654.117 129.892 653.279 130.251 652.4 130.266H652.353ZM659.047 114.667H645.694V105.759C645.766 104.034 646.503 102.403 647.752 101.208C649 100.013 650.664 99.3451 652.394 99.3451C654.124 99.3451 655.787 100.013 657.036 101.208C658.285 102.403 659.022 104.034 659.094 105.759L659.047 114.667Z" fill="url(#paint44_linear_21_3462)"/>
<g opacity="0.4" filter="url(#filter3_f_21_3462)">
<path d="M359.787 30.6945V21.7872C359.694 18.8947 358.477 16.1519 356.394 14.1387C354.311 12.1256 351.525 11 348.625 11C345.725 11 342.939 12.1256 340.856 14.1387C338.773 16.1519 337.556 18.8947 337.463 21.7872V30.6945C336.279 30.6945 335.144 31.1637 334.307 31.999C333.47 32.8342 333 33.967 333 35.1482V50.7476C333 51.9288 333.47 53.0616 334.307 53.8968C335.144 54.732 336.279 55.2013 337.463 55.2013H359.787C360.971 55.2013 362.106 54.732 362.943 53.8968C363.78 53.0616 364.25 51.9288 364.25 50.7476V35.1482C364.25 33.967 363.78 32.8342 362.943 31.999C362.106 31.1637 360.971 30.6945 359.787 30.6945ZM348.631 46.2939C347.967 46.2962 347.318 46.1019 346.765 45.7356C346.212 45.3694 345.781 44.8476 345.525 44.2364C345.269 43.6252 345.201 42.952 345.329 42.3022C345.458 41.6524 345.776 41.0551 346.244 40.586C346.713 40.1169 347.31 39.7971 347.961 39.667C348.612 39.537 349.286 39.6026 349.9 39.8555C350.513 40.1084 351.037 40.5372 351.406 41.0877C351.775 41.6382 351.972 42.2856 351.972 42.9479C351.972 43.8254 351.627 44.6679 351.01 45.2937C350.394 45.9196 349.556 46.2788 348.677 46.2939H348.631ZM355.325 30.6945H341.972V21.7872C342.043 20.0619 342.781 18.4311 344.029 17.2358C345.278 16.0404 346.941 15.3729 348.671 15.3729C350.401 15.3729 352.065 16.0404 353.313 17.2358C354.562 18.4311 355.299 20.0619 355.371 21.7872L355.325 30.6945Z" fill="url(#paint45_linear_21_3462)"/>
</g>
<g opacity="0.4" filter="url(#filter4_f_21_3462)">
<path d="M813.144 115.476V109.833C813.084 108.001 812.305 106.264 810.972 104.988C809.639 103.713 807.856 103 806 103C804.144 103 802.361 103.713 801.028 104.988C799.695 106.264 798.916 108.001 798.856 109.833V115.476C798.099 115.476 797.372 115.773 796.837 116.302C796.301 116.831 796 117.549 796 118.297V128.179C796 128.927 796.301 129.645 796.837 130.174C797.372 130.703 798.099 131 798.856 131H813.144C813.901 131 814.628 130.703 815.163 130.174C815.699 129.645 816 128.927 816 128.179V118.297C816 117.549 815.699 116.831 815.163 116.302C814.628 115.773 813.901 115.476 813.144 115.476ZM806.004 125.357C805.579 125.359 805.163 125.236 804.81 125.004C804.456 124.772 804.18 124.441 804.016 124.054C803.852 123.667 803.809 123.241 803.891 122.829C803.973 122.417 804.177 122.039 804.476 121.742C804.776 121.445 805.159 121.242 805.575 121.16C805.991 121.077 806.423 121.119 806.816 121.279C807.208 121.439 807.544 121.711 807.78 122.06C808.016 122.408 808.142 122.818 808.142 123.238C808.142 123.794 807.921 124.327 807.527 124.724C807.132 125.12 806.596 125.348 806.033 125.357H806.004ZM810.288 115.476H801.742V109.833C801.788 108.74 802.26 107.707 803.059 106.95C803.858 106.193 804.922 105.77 806.03 105.77C807.137 105.77 808.201 106.193 809.001 106.95C809.8 107.707 810.271 108.74 810.317 109.833L810.288 115.476Z" fill="url(#paint46_linear_21_3462)"/>
</g>
<defs>
<filter id="filter0_d_21_3462" x="184.419" y="87.6204" width="473.002" height="246.257" filterUnits="userSpaceOnUse" color-interpolation-filters="sRGB">
<feFlood flood-opacity="0" result="BackgroundImageFix"/>
<feColorMatrix in="SourceAlpha" type="matrix" values="0 0 0 0 0 0 0 0 0 0 0 0 0 0 0 0 0 0 127 0" result="hardAlpha"/>
<feOffset dy="10"/>
<feGaussianBlur stdDeviation="10"/>
<feColorMatrix type="matrix" values="0 0 0 0 0.427451 0 0 0 0 0.443137 0 0 0 0 0.45098 0 0 0 0.15 0"/>
<feBlend mode="normal" in2="BackgroundImageFix" result="effect1_dropShadow_21_3462"/>
<feBlend mode="normal" in="SourceGraphic" in2="effect1_dropShadow_21_3462" result="shape"/>
</filter>
<filter id="filter1_d_21_3462" x="282.372" y="146.862" width="266.452" height="216.02" filterUnits="userSpaceOnUse" color-interpolation-filters="sRGB">
<feFlood flood-opacity="0" result="BackgroundImageFix"/>
<feColorMatrix in="SourceAlpha" type="matrix" values="0 0 0 0 0 0 0 0 0 0 0 0 0 0 0 0 0 0 127 0" result="hardAlpha"/>
<feOffset dy="10"/>
<feGaussianBlur stdDeviation="10"/>
<feColorMatrix type="matrix" values="0 0 0 0 0.427451 0 0 0 0 0.443137 0 0 0 0 0.45098 0 0 0 0.15 0"/>
<feBlend mode="normal" in2="BackgroundImageFix" result="effect1_dropShadow_21_3462"/>
<feBlend mode="normal" in="SourceGraphic" in2="effect1_dropShadow_21_3462" result="shape"/>
</filter>
<filter id="filter2_d_21_3462" x="583" y="60" width="138" height="138" filterUnits="userSpaceOnUse" color-interpolation-filters="sRGB">
<feFlood flood-opacity="0" result="BackgroundImageFix"/>
<feColorMatrix in="SourceAlpha" type="matrix" values="0 0 0 0 0 0 0 0 0 0 0 0 0 0 0 0 0 0 127 0" result="hardAlpha"/>
<feOffset/>
<feGaussianBlur stdDeviation="9.5"/>
<feComposite in2="hardAlpha" operator="out"/>
<feColorMatrix type="matrix" values="0 0 0 0 0.101961 0 0 0 0 0.121569 0 0 0 0 0.129412 0 0 0 0.2 0"/>
<feBlend mode="normal" in2="BackgroundImageFix" result="effect1_dropShadow_21_3462"/>
<feBlend mode="normal" in="SourceGraphic" in2="effect1_dropShadow_21_3462" result="shape"/>
</filter>
<filter id="filter3_f_21_3462" x="329" y="7" width="39.25" height="52.2012" filterUnits="userSpaceOnUse" color-interpolation-filters="sRGB">
<feFlood flood-opacity="0" result="BackgroundImageFix"/>
<feBlend mode="normal" in="SourceGraphic" in2="BackgroundImageFix" result="shape"/>
<feGaussianBlur stdDeviation="2" result="effect1_foregroundBlur_21_3462"/>
</filter>
<filter id="filter4_f_21_3462" x="792" y="99" width="28" height="36" filterUnits="userSpaceOnUse" color-interpolation-filters="sRGB">
<feFlood flood-opacity="0" result="BackgroundImageFix"/>
<feBlend mode="normal" in="SourceGraphic" in2="BackgroundImageFix" result="shape"/>
<feGaussianBlur stdDeviation="2" result="effect1_foregroundBlur_21_3462"/>
</filter>
<linearGradient id="paint0_linear_21_3462" x1="631.636" y1="758.862" x2="-72.9698" y2="544.845" gradientUnits="userSpaceOnUse">
<stop stop-color="#C6C9EA"/>
<stop offset="1" stop-color="#F0F1FF"/>
</linearGradient>
<linearGradient id="paint1_linear_21_3462" x1="408.34" y1="377.844" x2="465.338" y2="342.344" gradientUnits="userSpaceOnUse">
<stop stop-color="#A9AEEE"/>
<stop offset="1" stop-color="#CACDF2"/>
</linearGradient>
<linearGradient id="paint2_linear_21_3462" x1="392.87" y1="419.175" x2="454.788" y2="365.442" gradientUnits="userSpaceOnUse">
<stop stop-color="#C6C9EA"/>
<stop offset="1" stop-color="#F0F1FF"/>
</linearGradient>
<linearGradient id="paint3_linear_21_3462" x1="372.132" y1="425.259" x2="379.706" y2="394.908" gradientUnits="userSpaceOnUse">
<stop stop-color="#C6C9EA"/>
<stop offset="1" stop-color="#F0F1FF"/>
</linearGradient>
<linearGradient id="paint4_linear_21_3462" x1="353.047" y1="200.821" x2="615.1" y2="47.4596" gradientUnits="userSpaceOnUse">
<stop stop-color="#A9AEEE"/>
<stop offset="1" stop-color="#CACDF2"/>
</linearGradient>
<linearGradient id="paint5_linear_21_3462" x1="261.129" y1="401.434" x2="557.911" y2="165.235" gradientUnits="userSpaceOnUse">
<stop stop-color="#C6C9EA"/>
<stop offset="1" stop-color="#F0F1FF"/>
</linearGradient>
<linearGradient id="paint6_linear_21_3462" x1="292.483" y1="370.718" x2="318.99" y2="265.521" gradientUnits="userSpaceOnUse">
<stop stop-color="#C6C9EA"/>
<stop offset="1" stop-color="#F0F1FF"/>
</linearGradient>
<linearGradient id="paint7_linear_21_3462" x1="424.47" y1="334.603" x2="443.137" y2="341.421" gradientUnits="userSpaceOnUse">
<stop stop-color="#A9AEEE"/>
<stop offset="1" stop-color="#CACDF2"/>
</linearGradient>
<linearGradient id="paint8_linear_21_3462" x1="175.241" y1="412.004" x2="213.997" y2="400.113" gradientUnits="userSpaceOnUse">
<stop stop-color="#C6C9EA"/>
<stop offset="1" stop-color="#F0F1FF"/>
</linearGradient>
<linearGradient id="paint9_linear_21_3462" x1="203.291" y1="435.99" x2="277.534" y2="402.408" gradientUnits="userSpaceOnUse">
<stop stop-color="#C6C9EA"/>
<stop offset="1" stop-color="#F0F1FF"/>
</linearGradient>
<linearGradient id="paint10_linear_21_3462" x1="446.461" y1="107.351" x2="438.122" y2="57.3888" gradientUnits="userSpaceOnUse">
<stop stop-color="#A9AEEE"/>
<stop offset="1" stop-color="#CACDF2"/>
</linearGradient>
<linearGradient id="paint11_linear_21_3462" x1="525.702" y1="150.537" x2="521.568" y2="110.671" gradientUnits="userSpaceOnUse">
<stop stop-color="#C6C9EA"/>
<stop offset="1" stop-color="#F0F1FF"/>
</linearGradient>
<linearGradient id="paint12_linear_21_3462" x1="561.3" y1="156.862" x2="561.3" y2="185.393" gradientUnits="userSpaceOnUse">
<stop stop-color="#5058C8"/>
<stop offset="1" stop-color="#141850"/>
</linearGradient>
<linearGradient id="paint13_linear_21_3462" x1="590.877" y1="231.98" x2="555.484" y2="191.885" gradientUnits="userSpaceOnUse">
<stop stop-color="#C6C9EA"/>
<stop offset="1" stop-color="#F0F1FF"/>
</linearGradient>
<linearGradient id="paint14_linear_21_3462" x1="276.858" y1="262.527" x2="223.866" y2="246.519" gradientUnits="userSpaceOnUse">
<stop stop-color="#C6C9EA"/>
<stop offset="1" stop-color="#F0F1FF"/>
</linearGradient>
<linearGradient id="paint15_linear_21_3462" x1="428.281" y1="299.997" x2="428.281" y2="218.004" gradientUnits="userSpaceOnUse">
<stop stop-color="#8389E2"/>
<stop offset="1" stop-color="#595FAF"/>
</linearGradient>
<linearGradient id="paint16_linear_21_3462" x1="439.795" y1="190.694" x2="439.819" y2="176.249" gradientUnits="userSpaceOnUse">
<stop stop-color="#39E0A5"/>
<stop offset="1" stop-color="#C5F9DA"/>
</linearGradient>
<linearGradient id="paint17_linear_21_3462" x1="439.795" y1="190.694" x2="439.819" y2="176.249" gradientUnits="userSpaceOnUse">
<stop stop-color="#39E0A5"/>
<stop offset="1" stop-color="#C5F9DA"/>
</linearGradient>
<linearGradient id="paint18_linear_21_3462" x1="439.795" y1="190.694" x2="439.819" y2="176.249" gradientUnits="userSpaceOnUse">
<stop stop-color="#39E0A5"/>
<stop offset="1" stop-color="#C5F9DA"/>
</linearGradient>
<linearGradient id="paint19_linear_21_3462" x1="439.795" y1="190.694" x2="439.819" y2="176.249" gradientUnits="userSpaceOnUse">
<stop stop-color="#39E0A5"/>
<stop offset="1" stop-color="#C5F9DA"/>
</linearGradient>
<linearGradient id="paint20_linear_21_3462" x1="439.795" y1="190.694" x2="439.819" y2="176.249" gradientUnits="userSpaceOnUse">
<stop stop-color="#39E0A5"/>
<stop offset="1" stop-color="#C5F9DA"/>
</linearGradient>
<linearGradient id="paint21_linear_21_3462" x1="439.795" y1="190.694" x2="439.819" y2="176.249" gradientUnits="userSpaceOnUse">
<stop stop-color="#39E0A5"/>
<stop offset="1" stop-color="#C5F9DA"/>
</linearGradient>
<linearGradient id="paint22_linear_21_3462" x1="439.795" y1="190.694" x2="439.819" y2="176.249" gradientUnits="userSpaceOnUse">
<stop stop-color="#39E0A5"/>
<stop offset="1" stop-color="#C5F9DA"/>
</linearGradient>
<linearGradient id="paint23_linear_21_3462" x1="439.795" y1="190.694" x2="439.819" y2="176.249" gradientUnits="userSpaceOnUse">
<stop stop-color="#39E0A5"/>
<stop offset="1" stop-color="#C5F9DA"/>
</linearGradient>
<linearGradient id="paint24_linear_21_3462" x1="770.382" y1="425.219" x2="770.382" y2="192.757" gradientUnits="userSpaceOnUse">
<stop stop-color="#C6C9EA"/>
<stop offset="1" stop-color="#F0F1FF"/>
</linearGradient>
<linearGradient id="paint25_linear_21_3462" x1="793.797" y1="420.92" x2="732.622" y2="374.957" gradientUnits="userSpaceOnUse">
<stop stop-color="#F0F1FF"/>
<stop offset="1" stop-color="#C6C9EA"/>
</linearGradient>
<linearGradient id="paint26_linear_21_3462" x1="665.767" y1="317.484" x2="645.417" y2="282.082" gradientUnits="userSpaceOnUse">
<stop stop-color="#FFB389"/>
<stop offset="1" stop-color="#FFB389"/>
</linearGradient>
<linearGradient id="paint27_linear_21_3462" x1="679.101" y1="267.158" x2="679.101" y2="306.309" gradientUnits="userSpaceOnUse">
<stop stop-color="#8389E2"/>
<stop offset="1" stop-color="#595FAF"/>
</linearGradient>
<linearGradient id="paint28_linear_21_3462" x1="627.862" y1="282.699" x2="617.611" y2="252.608" gradientUnits="userSpaceOnUse">
<stop stop-color="#FFB389"/>
<stop offset="1" stop-color="#FFCEB3"/>
</linearGradient>
<linearGradient id="paint29_linear_21_3462" x1="475.284" y1="411.834" x2="467.807" y2="394.147" gradientUnits="userSpaceOnUse">
<stop stop-color="#FFB389"/>
<stop offset="1" stop-color="#FFCEB3"/>
</linearGradient>
<linearGradient id="paint30_linear_21_3462" x1="547.622" y1="411.914" x2="540.936" y2="395.302" gradientUnits="userSpaceOnUse">
<stop stop-color="#FFB389"/>
<stop offset="1" stop-color="#FFCEB3"/>
</linearGradient>
<linearGradient id="paint31_linear_21_3462" x1="646.117" y1="193.088" x2="646.117" y2="262.462" gradientUnits="userSpaceOnUse">
<stop stop-color="#5058C8"/>
<stop offset="1" stop-color="#141850"/>
</linearGradient>
<linearGradient id="paint32_linear_21_3462" x1="552.562" y1="413.706" x2="492.286" y2="416.291" gradientUnits="userSpaceOnUse">
<stop stop-color="#1A1F21"/>
<stop offset="1" stop-color="#394144"/>
</linearGradient>
<linearGradient id="paint33_linear_21_3462" x1="479.727" y1="413.706" x2="419.54" y2="415.299" gradientUnits="userSpaceOnUse">
<stop stop-color="#1A1F21"/>
<stop offset="1" stop-color="#394144"/>
</linearGradient>
<linearGradient id="paint34_linear_21_3462" x1="626.871" y1="383.554" x2="528" y2="270.795" gradientUnits="userSpaceOnUse">
<stop stop-color="#1A1F21"/>
<stop offset="1" stop-color="#394144"/>
</linearGradient>
<linearGradient id="paint35_linear_21_3462" x1="703.917" y1="255.915" x2="770.052" y2="389.176" gradientUnits="userSpaceOnUse">
<stop stop-color="#5058C8"/>
<stop offset="1" stop-color="#141850"/>
</linearGradient>
<linearGradient id="paint36_linear_21_3462" x1="631.854" y1="247.616" x2="619.734" y2="228.732" gradientUnits="userSpaceOnUse">
<stop stop-color="#FFCEB3"/>
<stop offset="1" stop-color="#FFCEB3"/>
</linearGradient>
<linearGradient id="paint37_linear_21_3462" x1="683.086" y1="485.07" x2="600.088" y2="297.249" gradientUnits="userSpaceOnUse">
<stop stop-color="#1A1F21"/>
<stop offset="1" stop-color="#394144"/>
</linearGradient>
<linearGradient id="paint38_linear_21_3462" x1="733.016" y1="278.731" x2="733.645" y2="255.422" gradientUnits="userSpaceOnUse">
<stop stop-color="#FFB389"/>
<stop offset="1" stop-color="#FFCEB3"/>
</linearGradient>
<linearGradient id="paint39_linear_21_3462" x1="735.126" y1="329.481" x2="668.939" y2="230.513" gradientUnits="userSpaceOnUse">
<stop stop-color="#FFB389"/>
<stop offset="1" stop-color="#FFCEB3"/>
</linearGradient>
<linearGradient id="paint40_linear_21_3462" x1="743.929" y1="279.723" x2="768.068" y2="320.396" gradientUnits="userSpaceOnUse">
<stop stop-color="#8389E2"/>
<stop offset="1" stop-color="#595FAF"/>
</linearGradient>
<linearGradient id="paint41_linear_21_3462" x1="750.541" y1="260.544" x2="709.869" y2="215.573" gradientUnits="userSpaceOnUse">
<stop stop-color="#FFB389"/>
<stop offset="1" stop-color="#FFCEB3"/>
</linearGradient>
<linearGradient id="paint42_linear_21_3462" x1="744.92" y1="217.557" x2="701.933" y2="191.103" gradientUnits="userSpaceOnUse">
<stop stop-color="#1A1F21"/>
<stop offset="1" stop-color="#394144"/>
</linearGradient>
<linearGradient id="paint43_linear_21_3462" x1="751.534" y1="263.52" x2="712.846" y2="216.234" gradientUnits="userSpaceOnUse">
<stop stop-color="#FFB389"/>
<stop offset="1" stop-color="#FFCEB3"/>
</linearGradient>
<linearGradient id="paint44_linear_21_3462" x1="658.731" y1="130.579" x2="659.587" y2="93.038" gradientUnits="userSpaceOnUse">
<stop stop-color="#39E0A5"/>
<stop offset="1" stop-color="#C5F9DA"/>
</linearGradient>
<linearGradient id="paint45_linear_21_3462" x1="355.008" y1="46.6066" x2="355.864" y2="9.06583" gradientUnits="userSpaceOnUse">
<stop stop-color="#39E0A5"/>
<stop offset="1" stop-color="#C5F9DA"/>
</linearGradient>
<linearGradient id="paint46_linear_21_3462" x1="810.085" y1="125.556" x2="810.622" y2="101.775" gradientUnits="userSpaceOnUse">
<stop stop-color="#39E0A5"/>
<stop offset="1" stop-color="#C5F9DA"/>
</linearGradient>
</defs>
</svg>
